<svg width="30" height="30" viewBox="0 0 30 30" fill="none" xmlns="http://www.w3.org/2000/svg">
<path d="M23.2875 8.93737C23.3375 9.69987 23.275 10.5624 23.125 11.5249L22.2125 17.3874C21.4375 22.2749 19.175 23.9249 14.2875 23.1624L8.42499 22.2374C6.73749 21.9749 5.43749 21.5249 4.48749 20.8499C2.67499 19.5874 2.14999 17.5124 2.64999 14.3124L3.57499 8.44987C4.34999 3.56237 6.61249 1.91237 11.5 2.67487L17.3625 3.59987C21.2875 4.21237 23.125 5.81237 23.2875 8.93737Z" stroke="white" stroke-width="1.875" stroke-linecap="round" stroke-linejoin="round"/>
<path d="M25.625 16.8374L23.75 22.4749C22.1875 27.1749 19.6875 28.4249 14.9875 26.8624L9.35005 24.9874C6.51255 24.0499 4.93755 22.7499 4.48755 20.8499C5.43755 21.5249 6.73755 21.9749 8.42505 22.2374L14.2875 23.1624C19.175 23.9249 21.4375 22.2749 22.2125 17.3874L23.125 11.5249C23.275 10.5624 23.3375 9.69988 23.2875 8.93738C26.275 10.5249 26.925 12.9249 25.625 16.8374Z" stroke="white" stroke-width="1.875" stroke-linecap="round" stroke-linejoin="round"/>
<path d="M10.3 11.225C11.5012 11.225 12.475 10.2512 12.475 9.05C12.475 7.84877 11.5012 6.875 10.3 6.875C9.09877 6.875 8.125 7.84877 8.125 9.05C8.125 10.2512 9.09877 11.225 10.3 11.225Z" stroke="white" stroke-width="1.875" stroke-linecap="round" stroke-linejoin="round"/>
</svg>
