<svg width="30" height="30" viewBox="0 0 30 30" fill="none" xmlns="http://www.w3.org/2000/svg">
<g clip-path="url(#clip0_10_425)">
<path d="M9.30375 6.6875C10.1025 6.6875 10.8413 6.75 11.5163 6.935C12.1288 7.04756 12.7134 7.27854 13.2375 7.615C13.73 7.92375 14.0988 8.3575 14.3438 8.91375C14.59 9.47 14.7125 10.1513 14.7125 10.8925C14.7125 11.7588 14.5288 12.5 14.0988 13.0563C13.73 13.6138 13.115 14.1075 12.3775 14.4788C13.4225 14.7888 14.2213 15.345 14.7125 16.0863C15.205 16.8288 15.5125 17.7562 15.5125 18.8075C15.5125 19.6738 15.3275 20.415 15.02 21.0338C14.7125 21.6525 14.2213 22.2087 13.6675 22.58C13.066 22.9779 12.401 23.2705 11.7013 23.445C10.9638 23.6313 10.2263 23.755 9.48875 23.755H1.25V6.6875H9.30375ZM8.81125 13.6125C9.4875 13.6125 10.0412 13.4275 10.4712 13.1188C10.9012 12.81 11.0863 12.2525 11.0863 11.5725C11.0863 11.2013 11.0237 10.83 10.9012 10.5838C10.7787 10.3363 10.5938 10.15 10.3488 9.965C10.1025 9.84125 9.85625 9.7175 9.54875 9.65625C9.24125 9.59375 8.935 9.59375 8.565 9.59375H5V13.6138H8.8125L8.81125 13.6125ZM8.99625 20.91C9.365 20.91 9.73375 20.8475 10.0412 20.7863C10.3517 20.7272 10.6454 20.6005 10.9012 20.415C11.1517 20.234 11.3613 20.0023 11.5163 19.735C11.6388 19.4263 11.7625 19.055 11.7625 18.6225C11.7625 17.7563 11.5162 17.1375 11.025 16.705C10.5325 16.3338 9.85625 16.1488 9.0575 16.1488H5V20.9113H8.99625V20.91ZM20.8612 20.8475C21.3525 21.3425 22.09 21.59 23.0737 21.59C23.75 21.59 24.365 21.405 24.8563 21.0963C25.3488 20.725 25.6562 20.3538 25.7787 19.9825H28.7913C28.2988 21.4663 27.5613 22.5175 26.5788 23.1975C25.5938 23.8163 24.4262 24.1875 23.0125 24.1875C22.108 24.1902 21.211 24.0223 20.3688 23.6925C19.6109 23.4082 18.935 22.941 18.4012 22.3325C17.8304 21.7632 17.4084 21.0622 17.1725 20.2913C16.865 19.4875 16.7412 18.6225 16.7412 17.6325C16.7412 16.705 16.865 15.84 17.1725 15.035C17.4681 14.2601 17.9056 13.5471 18.4625 12.9325C19.0163 12.3763 19.6925 11.8825 20.43 11.5725C21.2509 11.2426 22.1278 11.0745 23.0125 11.0775C24.0575 11.0775 24.98 11.2638 25.7787 11.6963C26.5787 12.1288 27.1925 12.6238 27.685 13.3663C28.1874 14.0794 28.5617 14.8746 28.7913 15.7163C28.9138 16.5813 28.975 17.4475 28.9138 18.4363H20C20 19.4263 20.3687 20.3538 20.8612 20.8488V20.8475ZM24.7338 14.355C24.3038 13.9225 23.6275 13.675 22.8275 13.675C22.275 13.675 21.8438 13.7988 21.475 13.9838C21.1063 14.17 20.8613 14.4175 20.615 14.665C20.3887 14.9041 20.239 15.2053 20.185 15.53C20.1225 15.84 20.0612 16.0863 20.0612 16.3338H25.5938C25.4713 15.4063 25.1638 14.7888 24.7338 14.355V14.355ZM19.3237 7.8625H26.2087V9.5325H19.325V7.8625H19.3237Z" fill="white"/>
</g>
<defs>
<clipPath id="clip0_10_425">
<rect width="30" height="30" fill="white"/>
</clipPath>
</defs>
</svg>
