<svg width="66" height="65" viewBox="0 0 66 65" fill="none" xmlns="http://www.w3.org/2000/svg">
<rect x="0.359985" width="65" height="65" rx="4" fill="white"/>
<path d="M25.6831 39.9891C26.6789 41.0615 28.1342 41.5977 29.5896 41.5977C30.5854 41.5977 31.5046 41.3679 32.3472 40.9083L28.2874 50.713C27.981 51.4789 26.9087 51.7087 26.2959 51.0193L23.5383 48.1086L19.4785 48.2618C18.636 48.3384 17.9466 47.4192 18.3296 46.5766L21.7765 38.0741C22.3893 38.5337 23.0021 38.9167 23.7681 39.0699C25.3001 39.5295 24.9937 39.2997 25.6831 39.9891ZM47.5138 46.5766C47.8968 47.4192 47.2074 48.3384 46.3648 48.2618L42.3051 48.1086L39.5475 51.0193C38.9347 51.7087 37.8623 51.4789 37.5559 50.713L33.4962 40.9083C34.3388 41.3679 35.258 41.5977 36.2537 41.5977C37.7091 41.5977 39.1645 41.0615 40.1603 39.9891C40.8497 39.2997 40.4667 39.5295 42.1519 39.0699C42.8413 38.9167 43.4541 38.5337 44.0669 38.0741L47.5138 46.5766ZM38.3985 38.2273C37.3261 39.2997 35.7942 39.4529 34.5686 38.6869C34.109 38.3805 33.4962 38.2273 32.8834 38.2273C32.3472 38.2273 31.7344 38.3805 31.2748 38.6869C30.0492 39.4529 28.5172 39.2997 27.5214 38.2273C26.3725 37.0783 26.2193 37.1549 24.5341 36.6953C23.4617 36.4655 22.6191 35.6229 22.3127 34.4739C21.7765 32.3292 21.9297 32.559 20.3211 31.027C19.5551 30.1844 19.2487 29.0354 19.5551 27.963C20.0913 25.8182 20.0913 26.1246 19.5551 23.9033C19.2487 22.8309 19.5551 21.6819 20.3211 20.9159C21.9297 19.3073 21.7765 19.5371 22.3127 17.3923C22.6191 16.3199 23.4617 15.4774 24.5341 15.171C26.6789 14.5582 26.3725 14.7114 27.981 13.1028C28.747 12.3368 29.896 12.0304 30.9684 12.3368C33.0366 12.873 32.8068 12.873 34.875 12.3368C35.9474 12.0304 37.0963 12.3368 37.8623 13.1028C39.4709 14.7114 39.1645 14.5582 41.3093 15.171C42.3817 15.4774 43.2243 16.3199 43.5307 17.3923C44.0669 19.5371 43.9137 19.3073 45.5222 20.9159C46.2882 21.6819 46.5946 22.8309 46.2882 23.9033C45.752 26.1246 45.752 25.8182 46.2882 27.963C46.5946 29.0354 46.2882 30.1844 45.5222 31.027C43.9137 32.559 44.0669 32.3292 43.5307 34.4739C43.2243 35.6229 42.3817 36.4655 41.3093 36.6953C39.7007 37.1549 39.5475 37.0783 38.3985 38.2273ZM25.6831 25.665C25.6831 29.7248 28.9002 33.0186 32.96 33.0186C36.9431 33.0186 40.1603 29.7248 40.1603 25.665C40.1603 21.6053 36.9431 18.3115 32.96 18.3115C28.9002 18.3115 25.6831 21.6053 25.6831 25.665Z" fill="#F2AA4CFF"/>
</svg>
