<svg width="84" height="84" viewBox="0 0 84 84" fill="none" xmlns="http://www.w3.org/2000/svg">
<mask id="mask0_109_1567" style="mask-type:alpha" maskUnits="userSpaceOnUse" x="0" y="0" width="84" height="84">
<rect width="84" height="84" fill="#D9D9D9"/>
</mask>
<g mask="url(#mask0_109_1567)">
<path d="M42 45.5L14 28V63H45.5V70H14C12.075 70 10.4271 69.3146 9.05625 67.9438C7.68542 66.5729 7 64.925 7 63V21C7 19.075 7.68542 17.4271 9.05625 16.0563C10.4271 14.6854 12.075 14 14 14H70C71.925 14 73.5729 14.6854 74.9438 16.0563C76.3146 17.4271 77 19.075 77 21V45.5H70V28L42 45.5ZM42 38.5L70 21H14L42 38.5ZM66.5 80.5L61.6 75.6L67.1125 70H52.5V63H67.1125L61.5125 57.4L66.5 52.5L80.5 66.5L66.5 80.5ZM14 28V66.5V45.5V45.7625V21V28Z" fill="white"/>
</g>
</svg>
