<svg width="30" height="30" viewBox="0 0 30 30" fill="none" xmlns="http://www.w3.org/2000/svg">
<g clip-path="url(#clip0_10_421)">
<path d="M8.67499 6.25003C8.67466 6.91307 8.41095 7.54882 7.94187 8.01743C7.4728 8.48604 6.83678 8.74911 6.17374 8.74878C5.5107 8.74845 4.87494 8.48474 4.40634 8.01566C3.93773 7.54659 3.67466 6.91057 3.67499 6.24753C3.67532 5.58449 3.93903 4.94874 4.4081 4.48013C4.87718 4.01152 5.5132 3.74845 6.17624 3.74878C6.83928 3.74911 7.47503 4.01282 7.94364 4.4819C8.41225 4.95097 8.67532 5.58699 8.67499 6.25003V6.25003ZM8.74999 10.6H3.74999V26.25H8.74999V10.6ZM16.65 10.6H11.675V26.25H16.6V18.0375C16.6 13.4625 22.5625 13.0375 22.5625 18.0375V26.25H27.5V16.3375C27.5 8.62503 18.675 8.91253 16.6 12.7L16.65 10.6V10.6Z" fill="white"/>
</g>
<defs>
<clipPath id="clip0_10_421">
<rect width="30" height="30" fill="white"/>
</clipPath>
</defs>
</svg>
