<svg width="84" height="84" viewBox="0 0 84 84" fill="none" xmlns="http://www.w3.org/2000/svg">
<mask id="mask0_109_1541" style="mask-type:alpha" maskUnits="userSpaceOnUse" x="0" y="0" width="84" height="84">
<rect width="84" height="84" fill="#D9D9D9"/>
</mask>
<g mask="url(#mask0_109_1541)">
<path d="M31.5 45.5H38.5V35.875H45.5V45.5H52.5V28.875L42 21.875L31.5 28.875V45.5ZM42 67.725C49.1167 61.1917 54.3959 55.2562 57.8375 49.9187C61.2792 44.5812 63 39.8417 63 35.7C63 29.3417 60.9729 24.1354 56.9188 20.0812C52.8646 16.0271 47.8917 14 42 14C36.1084 14 31.1354 16.0271 27.0813 20.0812C23.0271 24.1354 21 29.3417 21 35.7C21 39.8417 22.7209 44.5812 26.1625 49.9187C29.6042 55.2562 34.8834 61.1917 42 67.725ZM42 77C32.6084 69.0083 25.5938 61.5854 20.9563 54.7312C16.3188 47.8771 14 41.5333 14 35.7C14 26.95 16.8146 19.9792 22.4438 14.7875C28.0729 9.59583 34.5917 7 42 7C49.4084 7 55.9271 9.59583 61.5563 14.7875C67.1855 19.9792 70 26.95 70 35.7C70 41.5333 67.6813 47.8771 63.0438 54.7312C58.4063 61.5854 51.3917 69.0083 42 77Z" fill="white"/>
</g>
</svg>
