<svg width="84" height="84" viewBox="0 0 84 84" fill="none" xmlns="http://www.w3.org/2000/svg">
<mask id="mask0_109_1554" style="mask-type:alpha" maskUnits="userSpaceOnUse" x="0" y="0" width="84" height="84">
<rect width="84" height="84" fill="#D9D9D9"/>
</mask>
<g mask="url(#mask0_109_1554)">
<path d="M63 35L57.925 30.1L63.525 24.5H45.5V17.5H63.525L58.1 12.075L63 7L77 21.175L63 35ZM69.825 73.5C62.5333 73.5 55.3292 71.9104 48.2125 68.7313C41.0958 65.5521 34.6208 61.0458 28.7875 55.2125C22.9542 49.3792 18.4479 42.9042 15.2688 35.7875C12.0896 28.6708 10.5 21.4667 10.5 14.175C10.5 13.125 10.85 12.25 11.55 11.55C12.25 10.85 13.125 10.5 14.175 10.5H28.35C29.1667 10.5 29.8958 10.7771 30.5375 11.3313C31.1792 11.8854 31.5583 12.5417 31.675 13.3L33.95 25.55C34.0667 26.4833 34.0375 27.2708 33.8625 27.9125C33.6875 28.5542 33.3667 29.1083 32.9 29.575L24.4125 38.15C25.5792 40.3083 26.9646 42.3938 28.5687 44.4062C30.1729 46.4187 31.9375 48.3583 33.8625 50.225C35.6708 52.0333 37.5667 53.7104 39.55 55.2563C41.5333 56.8021 43.6333 58.2167 45.85 59.5L54.075 51.275C54.6 50.75 55.2854 50.3563 56.1313 50.0938C56.9771 49.8312 57.8083 49.7583 58.625 49.875L70.7 52.325C71.5167 52.5583 72.1875 52.9813 72.7125 53.5938C73.2375 54.2062 73.5 54.8917 73.5 55.65V69.825C73.5 70.875 73.15 71.75 72.45 72.45C71.75 73.15 70.875 73.5 69.825 73.5ZM21.0875 31.5L26.8625 25.725L25.375 17.5H17.5875C17.8792 19.8917 18.2875 22.2542 18.8125 24.5875C19.3375 26.9208 20.0958 29.225 21.0875 31.5ZM52.4125 62.825C54.6875 63.8167 57.0063 64.6042 59.3688 65.1875C61.7313 65.7708 64.1083 66.15 66.5 66.325V58.625L58.275 56.9625L52.4125 62.825Z" fill="white"/>
</g>
</svg>
