<svg width="30" height="30" viewBox="0 0 30 30" fill="none" xmlns="http://www.w3.org/2000/svg">
<path d="M22.475 13.4875V18.4875C22.475 18.8125 22.4625 19.125 22.425 19.425C22.1375 22.8 20.15 24.475 16.4875 24.475H15.9875C15.675 24.475 15.375 24.625 15.1875 24.875L13.6875 26.875C13.025 27.7625 11.95 27.7625 11.2875 26.875L9.78749 24.875C9.62499 24.6625 9.2625 24.475 8.9875 24.475H8.48751C4.50001 24.475 2.5 23.4875 2.5 18.4875V13.4875C2.5 9.82501 4.18751 7.83751 7.55001 7.55001C7.85001 7.51251 8.16251 7.5 8.48751 7.5H16.4875C20.475 7.5 22.475 9.50001 22.475 13.4875Z" stroke="white" stroke-width="1.875" stroke-miterlimit="10" stroke-linecap="round" stroke-linejoin="round"/>
<path d="M27.475 8.48751V13.4875C27.475 17.1625 25.7875 19.1375 22.425 19.425C22.4625 19.125 22.475 18.8125 22.475 18.4875V13.4875C22.475 9.50001 20.475 7.5 16.4875 7.5H8.48755C8.16255 7.5 7.85005 7.51251 7.55005 7.55001C7.83755 4.18751 9.82505 2.5 13.4875 2.5H21.4875C25.475 2.5 27.475 4.50001 27.475 8.48751Z" stroke="white" stroke-width="1.875" stroke-miterlimit="10" stroke-linecap="round" stroke-linejoin="round"/>
<path d="M16.8694 16.5625H16.8806" stroke="white" stroke-width="2.5" stroke-linecap="round" stroke-linejoin="round"/>
<path d="M12.4944 16.5625H12.5056" stroke="white" stroke-width="2.5" stroke-linecap="round" stroke-linejoin="round"/>
<path d="M8.11938 16.5625H8.13063" stroke="white" stroke-width="2.5" stroke-linecap="round" stroke-linejoin="round"/>
</svg>
